dummy_motion.mot																		
nRows=55																		
nColumns=19																		
name dummy_motion.mot																		
datacolumns 19																		
datarows 55																		
range 12.51 13.05																		
endheader																		
time	pelvis_tilt	pelvis_tx	pelvis_ty	hip_flexion_r	hip_adduction_r	hip_rotation_r	knee_angle_r	ankle_angle_r	hip_flexion_l	hip_adduction_l	hip_rotation_l	knee_angle_l	ankle_angle_l	lumbar_extension	lumbar_bending	lumbar_rotation	subtalar_angle_r	subtalar_angle_l
12.51	0	0	0	71.90642089	20.49898247	-8.51491948	-61.45972738	12.58099164	71.90642089	20.49898247	-8.51491948	-61.45972738	12.58099164	57.40350816	30.74847377	-12.77237925	-19.26478292	-19.26478292
12.52	0	0	0	29.72737293	-8.599465656	-18.56305703	-93.27617827	6.989401715	29.72737293	-8.599465656	-18.56305703	-93.27617827	6.989401715	51.09726114	-12.89919851	-27.8445856	3.929690956	3.929690956
12.53	0	0	0	-25.8381504	21.08705477	4.463252099	1.25131156	-28.90359548	-25.8381504	21.08705477	4.463252099	1.25131156	-28.90359548	-55.13260819	31.63058221	6.694878162	43.62986133	43.62986133
12.54	0	0	0	-13.40070338	23.46398568	-14.2590241	-75.37827368	16.08157336	-13.40070338	23.46398568	-14.2590241	-75.37827368	16.08157336	74.31197259	35.19597859	-21.38853619	19.41102604	19.41102604
12.55	0	0	0	-43.59745152	7.691648756	-6.496156123	3.916339828	-27.77317624	-43.59745152	7.691648756	-6.496156123	3.916339828	-27.77317624	33.06418957	11.53747316	-9.744234205	30.50726376	30.50726376
12.56	0	0	0	-32.57390226	-6.049420821	-10.73748611	-37.88724556	-38.76740653	-32.57390226	-6.049420821	-10.73748611	-37.88724556	-38.76740653	69.91083168	-9.074131251	-16.1062292	-6.006549509	-6.006549509
12.57	0	0	0	79.04803749	-14.94112065	-13.79141039	-95.08333549	-26.76557787	79.04803749	-14.94112065	-13.79141039	-95.08333549	-26.76557787	38.31654687	-22.41168101	-20.68711563	-2.643775595	-2.643775595
12.58	0	0	0	-43.3044156	29.77735726	-29.71816609	-1.362094231	26.11624304	-43.3044156	29.77735726	-29.71816609	-1.362094231	26.11624304	-2.719436128	44.66603598	-44.57724922	5.464206994	5.464206994
12.59	0	0	0	55.42411105	8.236357616	-11.22875424	-61.39725504	-17.5883672	55.42411105	8.236357616	-11.22875424	-61.39725504	-17.5883672	59.9792478	12.35453645	-16.84313139	-20.78176108	-20.78176108
12.6	0	0	0	29.01805935	15.26529036	9.665503532	-95.34511374	-7.006869023	29.01805935	15.26529036	9.665503532	-95.34511374	-7.006869023	-73.66564441	22.89793559	14.49825533	22.41166209	22.41166209
12.61	0	0	0	30.07350894	22.78781927	0.41537826	-47.23174134	-18.66888992	30.07350894	22.78781927	0.41537826	-47.23174134	-18.66888992	-85.411484	34.18172898	0.623067392	0.349899611	0.349899611
12.62	0	0	0	72.67904557	-2.207794716	22.68794114	-38.59867757	11.5207975	72.67904557	-2.207794716	22.68794114	-38.59867757	11.5207975	-29.56898331	-3.311692081	34.03191178	13.21286996	13.21286996
12.63	0	0	0	-36.98295589	-13.52942006	-25.43344531	-72.749611	-36.54912925	-36.98295589	-13.52942006	-25.43344531	-72.749611	-36.54912925	-2.353927265	-20.29413012	-38.15016804	-17.30289762	-17.30289762
12.64	0	0	0	-9.799539541	-1.557846907	27.86360472	7.306016241	-33.602574	-9.799539541	-1.557846907	27.86360472	7.306016241	-33.602574	-49.43469119	-2.336770365	41.79540717	-32.51478275	-32.51478275
12.65	0	0	0	86.61187922	-28.2044083	-22.02526936	-61.32281158	-36.36723278	86.61187922	-28.2044083	-22.02526936	-61.32281158	-36.36723278	9.847583928	-42.30661254	-33.03790411	-2.198435958	-2.198435958
12.66	0	0	0	69.97153891	-16.28734918	5.816796238	-60.8515663	2.782760929	69.97153891	-16.28734918	5.816796238	-60.8515663	2.782760929	32.60671076	-24.43102382	8.725194375	-12.37866473	-12.37866473
12.67	0	0	0	-46.91959206	2.421649707	-7.280943385	-37.2172102	36.32078114	-46.91959206	2.421649707	-7.280943385	-37.2172102	36.32078114	60.28977764	3.632474568	-10.9214151	25.93020856	25.93020856
12.68	0	0	0	-40.39109503	-6.026427827	-6.112239661	-88.51118484	12.12779448	-40.39109503	-6.026427827	-6.112239661	-88.51118484	12.12779448	71.25710653	-9.039641759	-9.16835951	25.22662388	25.22662388
12.69	0	0	0	46.26629196	15.32766535	17.29528912	-119.922831	-23.74120906	46.26629196	15.32766535	17.29528912	-119.922831	-23.74120906	-11.23237472	22.99149808	25.94293373	15.16609928	15.16609928
12.7	0	0	0	-23.29907321	19.91739226	2.299779535	-73.06948549	30.81500042	-23.29907321	19.91739226	2.299779535	-73.06948549	30.81500042	-18.06204804	29.87608845	3.44966931	-32.98465263	-32.98465263
12.71	0	0	0	7.033472416	3.599063791	-2.796179903	-76.47294462	-4.675639454	7.033472416	3.599063791	-2.796179903	-76.47294462	-4.675639454	-10.77840828	5.398595697	-4.194269862	-43.05997015	-43.05997015
12.72	0	0	0	-31.37829348	3.941945577	-29.1462051	-23.0013303	28.42741278	-31.37829348	3.941945577	-29.1462051	-23.0013303	28.42741278	-34.2672557	5.912918377	-43.71930774	5.385663529	5.385663529
12.73	0	0	0	84.36127204	5.907962118	-10.90519439	-119.7570169	29.74695744	84.36127204	5.907962118	-10.90519439	-119.7570169	29.74695744	-9.548393053	8.861943195	-16.35779162	-17.92628837	-17.92628837
12.74	0	0	0	-66.18488571	3.957326141	-13.6191711	-14.70981031	19.80034195	-66.18488571	3.957326141	-13.6191711	-14.70981031	19.80034195	83.59022236	5.935989224	-20.4287567	39.54687425	39.54687425
12.75	0	0	0	-33.84712577	-1.335054282	-5.885106956	-32.43315216	-20.44414569	-33.84712577	-1.335054282	-5.885106956	-32.43315216	-20.44414569	-6.777318192	-2.002581427	-8.827660453	43.28132724	43.28132724
12.76	0	0	0	80.1670395	-9.551058881	-16.20054392	-96.04029288	-2.031967219	80.1670395	-9.551058881	-16.20054392	-96.04029288	-2.031967219	-0.721437772	-14.32658835	-24.30081593	-19.204165	-19.204165
12.77	0	0	0	6.994085812	18.70260686	11.00604648	-106.9492627	-3.006537755	6.994085812	18.70260686	11.00604648	-106.9492627	-3.006537755	-86.12281947	28.05391034	16.50906975	27.07382583	27.07382583
12.78	0	0	0	49.12190988	17.88461969	-8.130074073	5.385618328	-48.94025816	49.12190988	17.88461969	-8.130074073	5.385618328	-48.94025816	-55.38867645	26.82692959	-12.19511113	35.65002163	35.65002163
12.79	0	0	0	-67.3578899	-13.065341	-18.44020495	-104.4845456	-38.05316891	-67.3578899	-13.065341	-18.44020495	-104.4845456	-38.05316891	71.66416704	-19.59801155	-27.66030748	8.777391914	8.777391914
12.8	0	0	0	31.77546552	-17.26783261	-22.76568128	-14.27644575	-28.87540114	31.77546552	-17.26783261	-22.76568128	-14.27644575	-28.87540114	-19.92739982	-25.90174896	-34.14852198	34.56150622	34.56150622
12.81	0	0	0	4.599974904	-14.97001199	9.103979429	-77.72163164	7.623892583	4.599974904	-14.97001199	9.103979429	-77.72163164	7.623892583	-71.63169241	-22.45501803	13.65596917	39.93583871	39.93583871
12.82	0	0	0	51.78802009	-17.19257689	-11.27557615	-50.49829359	-28.66891978	51.78802009	-17.19257689	-11.27557615	-50.49829359	-28.66891978	-27.05425535	-25.78886538	-16.91336426	4.424227868	4.424227868
12.83	0	0	0	-20.93843394	3.21517768	-25.78334737	-45.26372595	-1.596639913	-20.93843394	3.21517768	-25.78334737	-45.26372595	-1.596639913	-57.86170372	4.822766529	-38.67502113	20.55481421	20.55481421
12.84	0	0	0	10.56802289	1.543650451	8.997518703	-20.99575341	-13.45713684	10.56802289	1.543650451	8.997518703	-20.99575341	-13.45713684	-45.16360886	2.315475682	13.49627808	6.908246807	6.908246807
12.85	0	0	0	-39.70557324	-11.70941147	20.93389304	-38.02244523	-43.80994116	-39.70557324	-11.70941147	20.93389304	-38.02244523	-43.80994116	25.37720103	-17.56411725	31.40083963	-42.6728276	-42.6728276
12.86	0	0	0	-57.5474243	20.03055674	-23.92021618	5.53005318	-41.45642564	-57.5474243	20.03055674	-23.92021618	5.53005318	-41.45642564	85.635749	30.04583518	-35.88032434	-4.812211954	-4.812211954
12.87	0	0	0	-53.1703216	-25.22527462	-9.458396568	-11.40493296	23.99856871	-53.1703216	-25.22527462	-9.458396568	-11.40493296	23.99856871	75.71949346	-37.83791201	-14.18759488	13.16717616	13.16717616
12.88	0	0	0	-33.09542826	-5.945701959	-17.3021824	-43.40138321	8.258289425	-33.09542826	-5.945701959	-17.3021824	-43.40138321	8.258289425	-80.31475303	-8.918552957	-25.95327365	1.908265741	1.908265741
12.89	0	0	0	69.59655634	24.00022308	-24.52765468	-17.12580399	33.17931515	69.59655634	24.00022308	-24.52765468	-17.12580399	33.17931515	72.55524237	36.00033469	-36.79148209	-11.49186053	-11.49186053
12.9	0	0	0	-39.65646491	22.48039208	-14.84296847	-78.04355344	-2.965602981	-39.65646491	22.48039208	-14.84296847	-78.04355344	-2.965602981	-55.80011195	33.72058819	-22.26445275	39.34211997	39.34211997
12.91	0	0	0	2.900277642	-16.48729084	-17.57852689	-55.87168038	-32.69553664	2.900277642	-16.48729084	-17.57852689	-55.87168038	-32.69553664	88.67073577	-24.73093632	-26.36779039	29.65795421	29.65795421
12.92	0	0	0	-64.63539147	-15.94311195	6.963237482	-77.44317779	-14.25642118	-64.63539147	-15.94311195	6.963237482	-77.44317779	-14.25642118	-31.23007286	-23.91466798	10.44485624	31.4176932	31.4176932
12.93	0	0	0	77.8176536	25.98329891	23.51092413	-64.62208831	-30.93675258	77.8176536	25.98329891	23.51092413	-64.62208831	-30.93675258	-49.04217086	38.97494845	35.26638626	-11.47191841	-11.47191841
12.94	0	0	0	89.92884863	9.028529801	12.98471246	-97.11227555	-0.486255613	89.92884863	9.028529801	12.98471246	-97.11227555	-0.486255613	79.86793143	13.54279473	19.47706873	8.38661177	8.38661177
12.95	0	0	0	45.29548721	-13.17641803	21.9132311	-13.76104469	27.37479594	45.29548721	-13.17641803	21.9132311	-13.76104469	27.37479594	55.95243746	-19.76462709	32.86984672	33.52973082	33.52973082
12.96	0	0	0	-41.26776666	-22.93466493	20.29492593	-77.12101253	-19.33873495	-41.26776666	-22.93466493	20.29492593	-77.12101253	-19.33873495	76.39994896	-34.40199747	30.44238895	39.01514477	39.01514477
12.97	0	0	0	19.93312953	12.51235281	-28.82595585	-32.09365081	-17.24185953	19.93312953	12.51235281	-28.82595585	-32.09365081	-17.24185953	39.33036015	18.76852925	-43.23893386	15.16178469	15.16178469
12.98	0	0	0	42.96379661	4.582144474	-10.12544648	-114.5433876	-6.188065717	42.96379661	4.582144474	-10.12544648	-114.5433876	-6.188065717	68.26618117	6.873216725	-15.18816975	-26.39011879	-26.39011879
12.99	0	0	0	40.30271795	-22.34087581	-26.62479588	-38.46798415	6.489731455	40.30271795	-22.34087581	-26.62479588	-38.46798415	6.489731455	65.71111828	-33.51131378	-39.9371939	13.84655329	13.84655329
13	0	0	0	61.69184465	-20.10637573	10.35873092	3.332571807	35.98164546	61.69184465	-20.10637573	10.35873092	3.332571807	35.98164546	-25.66348413	-30.15956365	15.53809641	-38.51536039	-38.51536039
13.01	0	0	0	-3.06531869	13.31635388	-15.71515727	-5.074494974	-48.7294359	-3.06531869	13.31635388	-15.71515727	-5.074494974	-48.7294359	-65.47023583	19.97453085	-23.57273595	-8.394577642	-8.394577642
13.02	0	0	0	-59.76751747	-28.3317676	-1.503919399	-43.60453736	-26.8886721	-59.76751747	-28.3317676	-1.503919399	-43.60453736	-26.8886721	55.04047379	-42.49765148	-2.255879103	15.02383799	15.02383799
13.03	0	0	0	19.67031193	-14.0357695	-26.69499417	-67.25196131	-10.34011514	19.67031193	-14.0357695	-26.69499417	-67.25196131	-10.34011514	32.60247247	-21.05365429	-40.04249134	39.03530936	39.03530936
13.04	0	0	0	45.67340569	27.69404472	20.42885354	-97.86225278	-3.116639822	45.67340569	27.69404472	20.42885354	-97.86225278	-3.116639822	-12.35031908	41.54106717	30.64328037	27.9855029	27.9855029
13.05	0	0	0	0.885134539	-28.52573223	5.992497503	-53.7387141	9.152385225	0.885134539	-28.52573223	5.992497503	-53.7387141	9.152385225	80.48077559	-42.78859843	8.988746272	-1.390655535	-1.390655535
